<svg id="Layer_1" data-name="Layer 1" xmlns="http://www.w3.org/2000/svg" xmlns:xlink="http://www.w3.org/1999/xlink" width="872.01" height="372.16" viewBox="0 0 872.01 372.16"><defs><style>.cls-1{fill:none;}.cls-2{fill:#3d426a;}.cls-3{clip-path:url(#clip-path);}.cls-4{fill:#f7a537;}.cls-5{clip-path:url(#clip-path-5);}.cls-6{fill:url(#linear-gradient);}.cls-7{fill:#f7a42d;}</style><clipPath id="clip-path" transform="translate(79.43 90.58)"><rect class="cls-1" x="17.42" y="4" width="775.17" height="182.99"/></clipPath><clipPath id="clip-path-5" transform="translate(79.43 90.58)"><path class="cls-1" d="M109,4A91.48,91.48,0,0,0,22.2,124.91c10.8,31.65,38.94,55.7,72.05,60.92A96.5,96.5,0,0,0,107.06,187h.14c3.1-.07,3-4.95-.14-5a87.36,87.36,0,0,1-75.77-48.2c-14.39-29-10.9-64.45,8.41-90.27a86.53,86.53,0,0,1,152.85,74.11,87.19,87.19,0,0,1-27.27,43.49c-2.1,1.81-4.29,3.49-6.55,5.08V137.65a42.77,42.77,0,0,1,.29-7.16,35.07,35.07,0,0,1,2.32-7.55c1.84-4.35,4.3-8.4,6.52-12.55C176.7,93.91,175.34,75,167,58.61c-3.69-7.26-8.55-14.39-14.75-19.73a54.09,54.09,0,0,0-17.7-10.08,65.15,65.15,0,0,0-40.35-.37C80.26,32.83,68.57,42,61.87,55.14a66.3,66.3,0,0,0-7,28c-.38,9.87-4.67,18.73-8.53,27.63-1.6,3.68-3.88,7.81-1.57,11.72,2.5,4.23,7.26,3.72,11.15,5.56,1.61.76,1.91,2.25,2.07,3.89.21,2.07.24,4.17.41,6.25a22.34,22.34,0,0,0,2.79,9.64c2.13,3.69,4.88,6.6,9.14,7.68,5,1.25,10.39.7,15.45.67h2.33c7.55,0,17.06.09,20.82-7.41,2.1-4.2,2.12-8.92,2.22-13.5,0-1.45,0-2.91.06-4.36h.08V106.78c-.14-5.88,3-6.31,3.54-6.34h21.84V95.73H114.8a8.06,8.06,0,0,0-5.45,2.44c-1.95,2-2.89,4.93-2.8,8.67v19.55l-.32,0c0,3.06-.08,6.12-.14,9.18-.08,4,.23,9.5-2.86,12.58-2.79,2.77-7.92,2.86-11.57,2.92-4.7.1-9.45.16-14.15.06s-8.56-.46-11.18-4.57a18.29,18.29,0,0,1-3-9c-.27-3.46,0-7.41-1.55-10.59-1.93-3.88-6.18-4.13-9.84-5.27-1.59-.5-3.25-1.35-3.22-3.23,0-2,1.54-4.4,2.34-6.23,1.88-4.3,3.84-8.57,5.44-13A54.47,54.47,0,0,0,59.68,86c.46-4.66.46-9.24,1.44-13.85,3.2-15.11,11.9-28.14,25.7-35.33a55,55,0,0,1,6.45-2.78v41.2H98V32.57a60.65,60.65,0,0,1,26.45-1.22A49.76,49.76,0,0,1,157,51.75a72.26,72.26,0,0,1,4.88,7.92H139.59v4.71h24.53c5,11.42,6.65,24.09,2.56,36.27-2.91,8.67-8.83,16-11.56,24.74-1.47,4.71-1.41,9.41-1.41,14.3v31.09a2.27,2.27,0,0,0,.94,1.92,2.18,2.18,0,0,0,2.89.33,91.54,91.54,0,0,0,41.29-94.62C192.71,45.52,168,18,136.1,8.06A89.91,89.91,0,0,0,109.57,4Z"/></clipPath><linearGradient id="linear-gradient" x1="1.15" y1="190.98" x2="4.01" y2="190.98" gradientTransform="matrix(89.39, 0, 0, -89.39, -126.22, 17167.85)" gradientUnits="userSpaceOnUse"><stop offset="0" stop-color="#3d426a"/><stop offset="1" stop-color="#557b82"/></linearGradient></defs><rect class="cls-2" x="324.49" y="172.72" width="12.64" height="47.23"/><g class="cls-3"><path class="cls-2" d="M291.62,93.48h15.05c7.33,0,11.12-4.58,11.12-10.28,0-6-3.79-10.53-11.12-10.53H291.62Zm-13.34,34.45V61.16h29.23c14.52,0,23.91,8.9,23.91,22,0,12.59-9.39,21.8-23.91,21.8H291.62v22.93Z" transform="translate(79.43 90.58)"/><path class="cls-2" d="M365.21,116.48h14c12.69,0,21.3-9.54,21.3-21.94s-8.61-22-21.3-22h-14ZM351.93,61.13h27.65c19.83,0,34.49,14.32,34.49,33.41S399.41,128,379.58,128H351.93Z" transform="translate(79.43 90.58)"/></g><rect class="cls-2" x="515.65" y="170.18" width="3.63" height="29.88"/><path class="cls-2" d="M476.32,99.45l-6.73-16.07-6.71,16.07Zm-21.21,10L467.45,79.6h4.27l12.37,29.88h-3.85l-2.78-6.93H461.73l-2.8,6.93Z" transform="translate(79.43 90.58)"/><g class="cls-3"><path class="cls-2" d="M496.6,94.54A15.37,15.37,0,0,1,524.72,86L521.88,88A11.67,11.67,0,0,0,512,82.57c-6.49,0-11.56,5.08-11.56,12s4.82,12,11.56,12,10-4.51,10.6-8.91H511.93v-3.3h14.42c0,.33,0,.88,0,1.37,0,7.81-5.37,14.23-14.46,14.23A15.09,15.09,0,0,1,496.6,94.54" transform="translate(79.43 90.58)"/></g><polygon class="cls-2" points="626.37 170.18 645.6 194.67 645.6 170.18 649.23 170.18 649.23 200.06 645.42 200.06 626.21 175.66 626.21 200.06 622.56 200.06 622.56 170.18 626.37 170.18"/><g class="cls-3"><path class="cls-2" d="M602.09,106.53c6.69,0,11.51-4.81,11.51-12s-4.82-12-11.51-12-11.51,4.8-11.51,12,4.82,12,11.51,12m-15.31-12c0-9.15,6.6-15.36,15.31-15.36s15.32,6.21,15.32,15.36-6.6,15.38-15.32,15.38-15.31-6.22-15.31-15.38" transform="translate(79.43 90.58)"/><path class="cls-2" d="M635.26,101.52a9.61,9.61,0,0,0,8.76,5.1c4,0,6.89-1.91,6.89-4.69,0-2.94-2.49-4.2-7.46-5.87-5.55-1.87-9.79-3.87-9.79-8.94,0-5.32,5.06-8,9.77-8a11.69,11.69,0,0,1,10.45,5.7L651,86.93a8.88,8.88,0,0,0-7.61-4.45c-3.13,0-6,1.54-6,4.6,0,2.91,2.62,3.94,7.15,5.48,5.62,1.91,10.11,3.92,10.11,9.33,0,4.69-4.52,8-10.68,8-5.72,0-9.81-2.9-11.48-6.44Z" transform="translate(79.43 90.58)"/></g><polygon class="cls-2" points="747.14 170.18 770.75 170.18 770.75 173.57 760.76 173.57 760.76 200.06 757.13 200.06 757.13 173.57 747.14 173.57 747.14 170.18"/><rect class="cls-2" x="786.41" y="170.18" width="3.63" height="29.88"/><g class="cls-3"><path class="cls-2" d="M742.93,79.16a15.41,15.41,0,0,1,13,7l-2.84,2.07a11.91,11.91,0,0,0-10.14-5.68c-6.5,0-11.56,5.08-11.56,12a11.63,11.63,0,0,0,11.67,12A12.17,12.17,0,0,0,753.36,101l2.73,2a15.51,15.51,0,0,1-13.05,7,15.38,15.38,0,1,1-.11-30.76" transform="translate(79.43 90.58)"/><path class="cls-2" d="M773.15,101.52a9.61,9.61,0,0,0,8.76,5.1c4,0,6.89-1.91,6.89-4.69,0-2.94-2.49-4.2-7.46-5.87-5.55-1.87-9.8-3.87-9.8-8.94,0-5.32,5.07-8,9.78-8a11.69,11.69,0,0,1,10.45,5.7l-2.84,2.07a8.9,8.9,0,0,0-7.61-4.45c-3.13,0-6,1.54-6,4.6,0,2.91,2.62,3.94,7.15,5.48,5.61,1.91,10.1,3.92,10.1,9.33,0,4.69-4.51,8-10.67,8-5.72,0-9.81-2.9-11.49-6.44Z" transform="translate(79.43 90.58)"/><path class="cls-4" d="M251.31,59.7a7.26,7.26,0,1,1,0,14.52A6.89,6.89,0,0,1,244.08,67a6.94,6.94,0,0,1,7.23-7.29" transform="translate(79.43 90.58)"/></g><g class="cls-5"><rect class="cls-6" x="-25.42" y="-36.22" width="264.22" height="263.43" transform="translate(42.95 184) rotate(-41)"/></g><g class="cls-3"><path class="cls-7" d="M91.6,74.31a8,8,0,1,0,11,3,8.07,8.07,0,0,0-11-3" transform="translate(79.43 90.58)"/><path class="cls-7" d="M135.57,65.45a4,4,0,1,1-4-6.85,3.91,3.91,0,0,1,2-.53,4,4,0,0,1,2,7.38M137.62,69a8.05,8.05,0,1,0-6.11.81,8.27,8.27,0,0,0,2.09.27A8,8,0,0,0,137.62,69Z" transform="translate(79.43 90.58)"/><path class="cls-7" d="M144.62,101.51a4,4,0,1,1,1.45-5.4,3.93,3.93,0,0,1-1.45,5.4m5-7.45a8.05,8.05,0,0,0-14,8,8,8,0,0,0,4.89,3.76,8.34,8.34,0,0,0,2.1.27,8,8,0,0,0,4-1.08,8.06,8.06,0,0,0,3-11" transform="translate(79.43 90.58)"/></g></svg>